<svg width="500" height="500" viewBox="0 0 500 500" fill="none" xmlns="http://www.w3.org/2000/svg">
<path d="M124.436 57.1673C100.424 70.9066 79.4942 83.1051 77.9533 84.1324V84.1324C76.1193 85.2487 75 87.2404 75 89.3874V140.245V140.245C75 173.484 92.8463 204.581 121.739 221.012V221.012C147.42 235.779 168.736 247.72 169.249 247.72C169.634 247.72 170.02 223.58 170.02 194.047V180.145C170.02 155.605 183.081 132.92 204.304 120.599V120.599C223.179 109.685 244.238 97.3581 251.3 93.3775C263.755 86.3152 263.884 86.0584 260.93 84.2608C249.245 76.8133 170.79 32 169.634 32C168.736 32 148.448 43.2996 124.436 57.1673Z" fill="#FDF4FF"/>
<path d="M330.525 139.732V139.732C330.525 149.979 325.048 159.444 316.163 164.549L284.043 183.004V183.004C253.187 200.593 253.022 219.368 283.697 237.27C305.421 249.948 327.006 262.461 329.113 263.514C330.654 264.285 340.926 258.892 365.837 244.51C384.969 233.339 406.156 221.141 413.09 217.16V217.16C420.797 212.711 425.545 204.487 425.545 195.588V193.791V185.497C425.545 180.714 422.936 176.312 418.74 174.016V174.016C415.144 171.833 393.957 159.635 371.743 146.666C349.529 133.697 331.167 123.168 330.911 123.168C330.782 123.168 330.525 130.615 330.525 139.732Z" fill="#FDF4FF"/>
<path d="M123.794 275.456C98.755 289.966 77.4398 302.55 76.541 303.192C75.3854 304.219 75.0001 308.585 75.257 319.371V319.371C75.4964 328.468 80.4353 336.791 88.306 341.361L121.868 360.845C147.292 375.612 168.479 387.682 168.993 387.682C169.506 387.682 170.148 380.877 170.277 372.659V372.659C170.516 363.32 175.575 354.772 183.646 350.068L215.604 331.441C240.386 317.188 261.316 304.861 262.214 304.347C263.37 303.705 248.218 294.203 217.144 276.227C191.335 261.203 170.148 249.005 169.891 249.005C169.635 249.005 148.833 260.946 123.794 275.456Z" fill="#FDF4FF"/>
<path d="M330.526 319.884L330.523 321.116C330.445 353.952 312.815 384.24 284.3 400.523V400.523C258.876 414.904 238.074 427.102 238.074 427.488C238.074 428.258 325.775 479.363 329.499 480.776C331.168 481.418 346.32 473.457 378.678 454.966V454.966C407.632 438.387 425.396 407.05 425.16 373.686V373.686L425.155 372.629C424.999 339.567 407.305 309.074 378.678 292.534V292.534C353.254 277.768 332.067 265.697 331.553 265.697C330.911 265.697 330.526 290.094 330.526 319.884Z" fill="#FDF4FF"/>
</svg>
